# xmcd
#
# Track frame offsets:
#	150
#	7423
#	16190
#	25443
#	37752
#	50989
#	59149
#	76935
#	86134
#	97423
#	111008
#	121450
#	132711
#	145296
#
# Disc length: 2113 seconds
#
# Revision: 0
# Processed by: cddbd v1.5.2PL0 Copyright (c) Steve Scherf et al.
# Submitted via: EasyCDDAExtractor 12.0.1.1
#
DISCID=d2083f0e
DTITLE=Various Artist - Western Panorama Volume 2
DYEAR=1971
DGENRE=Country
TTITLE0=The Green River Boys and Glen Campbell - Kentucky Means Paradise
TTITLE1=Buck Owens - Love's Gonna Live Here
TTITLE2=Merle Travis - Saturday's Night Shuffle
TTITLE3=Roy Acuff and His Smoky Mountain Boys - Wabash Cannon Ball
TTITLE4=Cliffie Stone and His Square-Dance Band - Bake Hot Cakes Brown
TTITLE5=The Green River Boys and Glen Campbell - Divorce Me C.O.D
TTITLE6=Rex Ritter - When The Work's All Done This Fall
TTITLE7=Earl Taylor and His Blue-Grass Mountaineers - Schuckin' The Corn
TTITLE8=Tommy Collins - If I Could Just Go Back
TTITLE9=The Green River Boys and Glen Campbell - Long Black Limousine
TTITLE10=Buck Owens - Act Naturally
TTITLE11=Rose Maddox - Down To The River
TTITLE12=Tex Ritter - Rye Whiskey
TTITLE13=Cliffie Stone and His Square-Dance Band - Ragtime Annie
EXTD=
EXTT0=
EXTT1=
EXTT2=
EXTT3=
EXTT4=
EXTT5=
EXTT6=
EXTT7=
EXTT8=
EXTT9=
EXTT10=
EXTT11=
EXTT12=
EXTT13=
PLAYORDER=
